<?xml version="1.0" standalone="no"?>
<!DOCTYPE svg PUBLIC "-//W3C//DTD SVG 20010904//EN"
 "http://www.w3.org/TR/2001/REC-SVG-20010904/DTD/svg10.dtd">
<svg version="1.0" xmlns="http://www.w3.org/2000/svg"
 width="833.000000pt" height="739.000000pt" viewBox="0 0 833.000000 739.000000"
 preserveAspectRatio="xMidYMid meet">

<g transform="translate(0.000000,739.000000) scale(0.100000,-0.100000)"
fill="#201d1d" stroke="none">
<path d="M0 3695 l0 -3695 4165 0 4165 0 0 3695 0 3695 -4165 0 -4165 0 0
-3695z m6387 3548 c3 -10 11 -25 18 -33 7 -8 30 -49 52 -90 22 -41 53 -97 70
-125 17 -27 39 -70 49 -95 9 -25 23 -52 30 -60 7 -8 20 -35 30 -60 9 -25 25
-54 35 -65 9 -11 32 -49 51 -85 19 -36 58 -104 85 -151 28 -47 54 -97 58 -110
4 -13 32 -62 61 -108 30 -47 54 -88 54 -93 0 -4 32 -64 70 -134 38 -69 70
-128 70 -130 0 -2 17 -30 37 -61 33 -50 68 -114 131 -238 8 -16 24 -43 35 -58
10 -15 48 -85 84 -155 36 -70 75 -140 87 -157 27 -36 97 -166 116 -215 7 -19
26 -55 42 -79 16 -24 32 -57 35 -73 3 -16 17 -41 32 -57 14 -16 65 -100 114
-187 48 -88 96 -175 107 -194 10 -19 40 -73 66 -120 26 -47 60 -107 74 -135
15 -27 56 -102 92 -166 36 -65 69 -128 73 -140 4 -13 21 -44 38 -69 39 -58 39
-94 0 -147 -17 -24 -41 -69 -54 -100 -28 -70 -64 -139 -110 -213 -19 -30 -41
-73 -48 -94 -7 -21 -29 -64 -47 -95 -19 -31 -34 -60 -34 -64 0 -5 -16 -36 -36
-70 -21 -34 -60 -105 -87 -157 -28 -52 -71 -129 -96 -170 -25 -41 -56 -95 -68
-120 -13 -25 -44 -83 -68 -129 -25 -46 -45 -89 -45 -95 0 -6 -16 -34 -34 -62
-74 -109 -176 -297 -176 -323 0 -4 -11 -24 -23 -43 -13 -19 -59 -101 -101
-184 -43 -82 -81 -153 -86 -159 -8 -11 -73 -130 -130 -243 -21 -41 -47 -83
-57 -95 -22 -26 -119 -220 -128 -257 -1 -5 -21 -42 -42 -75 -7 -11 -18 -31
-25 -45 -6 -14 -17 -32 -24 -40 -25 -31 -104 -183 -104 -200 0 -9 -11 -32 -25
-51 -14 -19 -33 -50 -43 -69 -9 -19 -43 -81 -75 -136 -31 -56 -57 -106 -57
-112 0 -5 -8 -20 -18 -33 -10 -13 -26 -45 -36 -71 l-18 -48 -2188 0 c-1738 0
-2190 3 -2197 13 -6 6 -19 30 -30 52 -11 22 -33 65 -48 95 -16 30 -49 89 -74
130 -46 76 -65 111 -164 302 -30 59 -71 127 -91 150 -20 23 -36 47 -36 53 0
14 -79 173 -120 240 -16 28 -34 59 -39 70 -50 111 -89 187 -113 223 -16 23
-36 59 -45 79 -8 21 -28 56 -44 79 -16 23 -56 97 -89 165 -33 68 -76 151 -95
184 -19 33 -53 96 -75 140 -22 44 -54 103 -71 130 -18 28 -55 95 -84 150 -29
55 -80 154 -115 219 -34 66 -72 136 -85 155 -12 20 -41 74 -65 121 -24 47 -55
103 -69 125 -14 22 -46 81 -72 130 -26 50 -63 115 -83 145 -20 30 -36 59 -36
65 0 14 -43 96 -90 171 -21 34 -43 79 -49 101 -6 23 -18 46 -27 53 -8 7 -24
26 -35 41 l-19 28 35 58 c19 32 40 74 46 93 6 19 26 56 44 81 18 25 36 57 40
70 4 13 13 31 19 39 7 8 30 49 51 90 21 41 44 82 51 90 7 9 23 37 34 62 11 26
25 50 30 53 4 3 11 19 15 36 4 17 19 45 34 62 15 18 35 52 45 77 9 25 28 62
42 82 13 21 24 41 24 46 0 4 15 30 33 57 18 28 45 75 60 106 15 31 38 72 50
90 13 19 41 72 64 119 23 47 54 103 69 125 15 22 56 96 92 165 87 167 112 212
127 230 7 8 29 47 49 87 19 39 40 74 46 78 5 3 10 12 10 20 0 7 16 42 36 77
138 240 264 475 264 491 0 3 17 34 38 68 21 35 62 109 91 164 30 55 59 107 66
115 7 8 24 38 37 65 13 28 36 70 50 95 14 25 29 56 33 69 4 14 22 45 40 70 17
25 62 105 99 176 38 72 70 133 73 137 2 4 994 8 2204 8 2090 0 2200 -1 2206
-17z"/>
<path d="M2059 7175 c-6 -5 30 -118 49 -152 7 -12 12 -26 12 -32 0 -6 11 -34
24 -63 23 -52 40 -98 38 -108 0 -3 3 -9 7 -15 5 -5 11 -23 15 -40 8 -33 76
-172 125 -253 17 -29 31 -57 31 -61 0 -4 36 -41 80 -80 l80 -73 -2 439 -3 438
-226 3 c-124 1 -228 0 -230 -3z"/>
<path d="M4250 7174 c-71 -11 -137 -28 -164 -44 -17 -10 -50 -29 -74 -42 -72
-42 -195 -170 -264 -275 -73 -112 -98 -158 -98 -184 0 -18 -57 -174 -90 -244
-10 -22 -24 -58 -30 -80 -7 -22 -19 -52 -26 -67 -8 -14 -14 -33 -14 -40 0 -8
-9 -41 -20 -74 -38 -109 -135 -427 -145 -474 -17 -76 -27 -115 -33 -124 -3 -6
-7 -16 -8 -23 -1 -7 -11 -43 -23 -80 -11 -37 -27 -99 -35 -138 -19 -87 -49
-177 -76 -220 -11 -17 -35 -70 -54 -116 -19 -46 -54 -122 -78 -169 -25 -47
-47 -94 -51 -105 -10 -34 -71 -158 -100 -202 -15 -24 -27 -45 -27 -48 0 -10
-106 -237 -133 -285 -7 -14 -25 -50 -39 -80 -58 -126 -129 -277 -143 -300 -19
-35 -38 -31 -48 10 -5 19 -16 53 -24 75 -16 42 -22 56 -76 175 -19 42 -42 97
-51 123 -9 26 -25 65 -35 85 -28 55 -85 204 -119 312 -17 52 -42 118 -56 147
-14 28 -35 82 -47 120 -12 37 -27 74 -33 82 -6 8 -10 15 -8 15 2 1 -1 13 -6
27 -6 14 -16 45 -23 70 -7 24 -16 49 -21 55 -5 7 -11 20 -13 30 -2 11 -18 55
-35 99 -17 44 -36 94 -42 110 -6 17 -32 84 -58 150 -26 66 -55 145 -65 175
-10 30 -22 61 -28 68 -5 6 -7 12 -4 12 4 0 -4 26 -17 58 -60 144 -105 261
-116 302 -15 60 -62 170 -73 170 -4 0 -11 -8 -14 -17 -4 -10 -17 -31 -29 -48
-12 -16 -41 -65 -63 -109 -23 -43 -50 -90 -60 -105 -10 -14 -29 -46 -41 -71
-45 -89 -81 -156 -116 -215 -49 -82 -67 -168 -60 -280 7 -111 21 -209 32 -227
5 -7 9 -15 10 -18 15 -73 134 -268 248 -405 14 -16 38 -46 53 -65 15 -19 30
-37 33 -40 3 -3 35 -41 70 -84 36 -43 72 -86 80 -95 8 -9 48 -55 89 -104 40
-48 77 -87 82 -87 5 0 23 -19 40 -42 31 -43 153 -181 243 -273 26 -27 62 -68
79 -90 34 -44 117 -137 207 -232 33 -34 68 -79 79 -100 11 -21 34 -54 51 -73
17 -19 42 -51 55 -70 14 -19 37 -53 53 -75 15 -22 31 -47 35 -55 4 -8 29 -44
57 -80 27 -36 61 -87 76 -114 14 -27 47 -77 73 -112 25 -34 60 -85 76 -113 17
-28 48 -80 70 -116 22 -35 54 -87 70 -115 17 -28 47 -73 67 -99 21 -27 49 -72
64 -102 15 -29 38 -65 51 -79 12 -13 23 -28 23 -33 0 -9 -79 -6 -100 4 -20 10
-181 27 -380 40 -91 6 -208 15 -260 19 -288 25 -342 30 -348 34 -4 2 -52 7
-107 10 -186 12 -343 27 -430 41 -16 3 -61 7 -100 10 -38 2 -106 9 -150 15
-162 21 -215 28 -428 50 -120 12 -220 21 -222 18 -6 -5 68 -144 89 -168 8 -8
36 -58 63 -110 52 -99 119 -218 133 -235 4 -5 11 -21 15 -35 23 -75 128 -163
258 -216 139 -56 266 -67 425 -34 54 10 113 22 132 25 19 3 53 11 75 16 60 16
74 20 145 34 36 8 79 20 95 29 17 8 46 17 65 19 60 9 191 37 280 58 47 12 92
23 100 24 8 1 22 5 30 8 8 3 62 17 120 32 58 15 143 37 190 50 131 37 336 84
404 95 33 5 108 16 166 25 58 9 121 18 140 21 19 3 58 9 85 14 28 5 77 12 110
15 121 10 251 25 300 35 28 5 118 14 200 20 83 6 191 15 240 20 50 6 119 12
155 15 36 2 98 10 138 16 41 6 75 9 77 7 4 -4 -138 -244 -158 -267 -8 -9 -27
-38 -43 -66 -15 -27 -45 -72 -65 -100 -20 -27 -49 -72 -64 -99 -14 -27 -41
-68 -59 -90 -18 -23 -43 -59 -56 -81 -14 -22 -56 -83 -96 -135 -39 -52 -83
-115 -99 -140 -15 -25 -40 -58 -55 -75 -15 -16 -56 -72 -90 -122 -35 -51 -66
-93 -70 -93 -4 0 -33 -36 -64 -80 -32 -44 -62 -80 -67 -80 -4 0 -24 -21 -43
-47 -20 -27 -44 -57 -54 -68 -65 -70 -295 -349 -325 -395 -20 -30 -56 -84 -81
-119 -25 -36 -42 -69 -39 -74 6 -10 579 -3 621 7 41 11 62 16 83 21 12 2 31
10 43 18 11 7 44 21 71 31 72 27 214 174 286 298 61 105 79 139 109 218 12 30
35 87 50 125 51 126 158 457 201 620 57 220 67 256 79 285 5 14 12 41 15 60 3
19 12 60 20 90 7 30 19 78 25 105 12 54 28 117 58 235 10 41 28 93 40 115 12
22 22 43 22 47 0 9 21 52 158 318 141 275 140 274 247 495 54 110 101 207 106
215 13 20 84 168 97 203 7 15 15 27 19 27 9 -1 49 -82 74 -150 32 -86 60 -152
89 -210 25 -50 52 -116 64 -155 2 -5 8 -23 14 -38 7 -16 12 -30 12 -32 0 -2
10 -25 22 -52 12 -26 22 -50 22 -53 1 -7 31 -78 63 -147 12 -28 23 -55 23 -58
0 -8 46 -125 71 -182 11 -23 19 -46 19 -52 0 -5 11 -31 25 -56 26 -50 75 -167
80 -194 6 -33 154 -404 180 -451 7 -14 32 -81 54 -149 39 -118 62 -176 117
-299 13 -29 24 -57 24 -62 0 -12 60 -163 69 -173 4 -4 27 28 51 70 24 43 51
89 61 103 9 14 49 90 89 170 41 80 88 168 105 195 41 64 57 134 62 270 4 97
-11 228 -33 295 -3 8 -5 16 -5 17 2 6 -103 203 -139 262 -21 35 -54 80 -73
100 -19 20 -45 54 -58 76 -29 50 -128 171 -196 242 -29 30 -53 57 -53 62 0 4
-32 41 -71 82 -39 41 -99 106 -134 144 -35 39 -108 116 -162 171 -54 56 -168
175 -253 264 -85 90 -173 182 -196 205 -22 23 -57 67 -78 98 -21 31 -41 57
-44 57 -4 1 -25 30 -47 65 -22 36 -65 101 -95 145 -30 44 -68 102 -85 130 -16
28 -49 76 -72 108 -23 31 -50 73 -60 92 -10 19 -44 70 -75 114 -32 44 -58 83
-58 88 0 4 -22 40 -49 80 -26 40 -54 84 -61 98 -7 14 -28 49 -48 78 -19 28
-33 55 -29 58 10 10 540 -17 577 -30 8 -2 92 -7 185 -11 94 -3 179 -8 190 -10
11 -2 56 -7 100 -10 44 -3 105 -9 135 -14 30 -5 62 -10 70 -10 73 -4 137 -10
205 -20 130 -18 515 -62 585 -67 36 -3 97 -11 135 -19 39 -8 132 -17 209 -21
l138 -7 -26 39 c-14 21 -26 44 -26 50 0 7 -15 34 -33 60 -18 27 -54 90 -79
139 -25 50 -55 106 -67 125 -11 19 -25 45 -31 58 -15 35 -105 165 -126 183
-29 24 -127 76 -186 99 -153 60 -317 71 -463 33 -44 -12 -100 -25 -125 -28
-25 -4 -49 -11 -55 -15 -5 -4 -32 -11 -60 -14 -27 -4 -72 -14 -100 -21 -27 -8
-61 -17 -75 -20 -51 -11 -237 -58 -300 -76 -63 -18 -198 -50 -350 -84 -41 -9
-82 -19 -90 -22 -8 -3 -28 -8 -45 -10 -16 -3 -34 -8 -40 -13 -9 -7 -98 -30
-240 -62 -128 -28 -233 -57 -270 -73 -28 -12 -84 -20 -180 -26 -77 -4 -264
-15 -415 -23 -151 -9 -320 -20 -375 -26 -148 -15 -445 -31 -456 -25 -8 6 15
63 30 75 3 3 19 30 35 60 75 146 97 184 130 225 20 24 36 48 36 53 0 5 19 39
43 75 23 36 60 96 82 132 22 37 65 97 96 134 31 37 64 81 72 98 9 17 52 73 94
125 43 51 91 111 108 133 16 22 41 52 55 67 65 70 87 95 103 120 9 15 33 42
52 59 18 17 46 50 61 72 15 23 44 58 63 78 20 20 70 78 111 129 132 162 183
224 224 272 23 25 51 60 64 77 l24 31 -289 -1 c-158 -1 -299 -3 -313 -5z"/>
<path d="M6291 7154 c-50 -35 -122 -94 -157 -128 -17 -17 -48 -44 -70 -60 -21
-17 -68 -55 -104 -86 -36 -31 -74 -63 -86 -71 -22 -15 -115 -94 -198 -170 -28
-25 -66 -56 -83 -68 -40 -27 -41 -40 -5 -74 28 -27 56 -35 66 -18 3 4 27 11
53 15 27 3 82 18 123 32 41 14 80 27 85 28 38 8 154 40 170 47 42 18 131 47
163 53 19 3 48 12 65 20 45 20 195 66 215 66 47 1 45 15 -14 116 -58 99 -88
153 -139 251 -36 70 -44 74 -84 47z"/>
<path d="M319 4072 c-21 -31 -40 -68 -44 -82 -5 -14 -18 -41 -30 -60 -11 -19
-27 -51 -35 -70 -7 -19 -26 -54 -42 -77 -15 -23 -28 -48 -28 -56 0 -14 84 -46
245 -92 50 -14 146 -43 215 -65 69 -22 139 -42 155 -45 17 -4 39 -11 50 -15
11 -5 43 -14 70 -19 81 -16 176 -40 240 -61 33 -10 79 -22 102 -25 35 -6 43
-3 52 13 10 18 0 31 -85 109 -53 48 -103 92 -112 97 -42 22 -119 76 -136 95
-11 12 -24 21 -30 21 -6 1 -45 27 -86 60 -41 33 -111 85 -155 116 -44 32 -102
77 -130 102 -27 24 -70 55 -96 68 -26 13 -50 28 -54 34 -13 21 -31 8 -66 -48z"/>
<path d="M7040 4086 c28 -35 82 -86 157 -148 41 -35 96 -83 122 -108 25 -25
62 -57 81 -73 73 -58 154 -117 160 -117 3 0 34 -27 69 -59 34 -33 88 -77 119
-97 31 -21 76 -53 99 -73 23 -20 62 -50 87 -68 l46 -32 35 52 c97 141 195 316
195 347 0 4 -19 13 -42 19 -24 7 -61 21 -83 31 -23 10 -54 22 -70 26 -17 4
-41 13 -55 20 -36 19 -220 84 -237 84 -8 0 -45 13 -83 30 -37 16 -92 35 -121
40 -30 6 -65 16 -79 22 -14 7 -27 12 -30 13 -43 8 -303 81 -370 104 -13 4 -13
3 0 -13z"/>
<path d="M5871 1010 l-33 -81 6 -192 c6 -183 17 -413 22 -429 1 -5 2 -37 3
-73 l1 -65 223 0 c123 0 226 3 229 6 6 6 -12 48 -83 202 -22 45 -39 85 -39 88
0 3 -16 40 -36 82 -20 43 -52 111 -71 152 -19 41 -50 107 -68 145 -75 160 -93
201 -100 223 -3 12 -10 22 -14 22 -4 0 -22 -36 -40 -80z"/>
<path d="M2615 871 c-49 -15 -121 -39 -160 -54 -38 -15 -104 -36 -145 -47 -70
-19 -350 -113 -413 -138 -16 -7 -37 -12 -48 -12 -32 0 -23 -30 39 -125 7 -11
19 -34 27 -52 8 -17 19 -34 24 -37 5 -3 12 -18 15 -32 4 -15 22 -47 41 -71 19
-25 40 -60 47 -79 13 -37 32 -44 47 -16 5 10 26 27 45 37 20 11 36 22 36 25 0
10 33 42 75 75 22 17 57 46 79 65 23 20 77 66 121 102 44 36 91 78 104 92 14
14 29 26 34 26 5 0 32 22 61 49 28 27 74 67 103 90 28 22 54 45 58 51 8 14
-20 47 -57 66 -33 17 -23 18 -133 -15z"/>
</g>
</svg>
